<?xml version="1.0" encoding="UTF-8"?>
<svg width="86px" height="80px" viewBox="0 0 86 80" version="1.1" xmlns="http://www.w3.org/2000/svg" xmlns:xlink="http://www.w3.org/1999/xlink">
    <!-- Generator: Sketch 58 (84663) - https://sketch.com -->
    <title>Group</title>
    <desc>Created with Sketch.</desc>
    <g id="Welcome" stroke="none" stroke-width="1" fill="none" fill-rule="evenodd">
        <g id="Desktop" transform="translate(-763.000000, -652.000000)" fill="#7B62D5" fill-rule="nonzero">
            <g id="Group" transform="translate(763.000000, 653.000000)">
                <path d="M0.831811676,38.688058 L5.60893631,41.8510045 L5.60893631,61.2857143 C5.60528477,61.9930246 6.00604113,62.6413924 6.64323441,62.9569616 L13.0872863,66.1480189 L13.0872863,70.5714286 C13.0872863,71.1563197 13.3648032,71.7067522 13.8349388,72.0567803 L21.3132887,77.6282088 C21.6373628,77.8694196 22.0308159,78 22.4352238,78 L29.9135737,78 C30.3179816,78 30.7114347,77.8694196 31.0355088,77.6282088 L40.0000009,70.5714286 L40.0000009,6.97797933 L31.0355088,0.371791179 C30.7114347,0.130580357 30.3179816,0 29.9135737,0 L18.6960488,0 C18.1282345,0 17.5905456,0.25571975 17.2363464,0.696428571 L9.75799639,9.98214286 C9.49234717,10.3113142 9.3481113,10.7211915 9.3481113,11.1428571 L9.3481113,17.3145928 L1.17414343,20.5600585 C0.464831982,20.8429826 -0.000739005684,21.525809 8.80583666e-07,22.2857143 L8.80583666e-07,37.1428571 C8.80583666e-07,37.7640206 0.312380443,38.343471 0.831811676,38.688058 Z M4.00000079,23.652862 L10.6204051,21.060793 L11.7270227,23.2288036 C12.0459564,23.8545374 12.69853,24.2488849 13.4117653,24.2488849 L17.1764711,24.2488849 L17.1764711,20.5611062 L14.5753681,20.5611062 L13.4117653,18.2823541 L13.4117653,11.9890013 L19.9623167,3.96610169 L22.8235298,3.96610169 L22.8235298,8.7342844 L21.4926475,10.0379718 L24.1544121,12.6453466 L26.036765,10.8014573 C26.3897062,10.455728 26.5882356,9.98665269 26.5882356,9.49776985 L26.5882356,3.96610169 L29.7261033,3.96610169 L36.0000008,8.57582516 L36.0000008,12.2636039 L29.2233459,17.2424653 C28.7500002,17.5899953 28.4705885,18.1364997 28.4705885,18.7172168 L28.4705885,22.4049955 L32.2352943,22.4049955 L32.2352943,19.6391615 L36.0000008,16.8733274 L36.0000008,40.8438894 L32.9623164,40.8438894 L30.3529414,38.2878337 L30.3529414,31.7297818 C30.3529414,31.2408992 30.154412,30.7718236 29.8014708,30.4260944 L28.3593753,29.0134663 C28.4319857,28.6587335 28.4687504,28.2985989 28.4705885,27.9366637 C28.4705885,24.8818216 25.9420958,22.4049955 22.8235298,22.4049955 C19.7049637,22.4049955 17.1764711,24.8818216 17.1764711,27.9366637 C17.1764711,30.9915058 19.7049637,33.4683318 22.8235298,33.4683318 C24.1011034,33.4629297 25.3382356,33.0289676 26.3281252,32.2384719 L26.5882356,32.4932672 L26.5882356,39.0513191 C26.5882356,39.540202 26.786765,40.0092773 27.1397062,40.3550065 L30.8520223,43.9914662 C31.2049635,44.3371954 31.6838237,44.5316682 32.1829046,44.5316682 L36.0000008,44.5316682 L36.0000008,69.4241748 L29.7261033,74.0338983 L23.4503679,74.0338983 L17.1764711,69.4241748 L17.1764711,65.5779368 L21.7205886,61.1266726 L23.1700371,61.1266726 C24.0863975,63.6665221 26.7380518,65.190792 29.4485296,64.7352218 C32.1599268,64.2796515 34.1406251,61.9765904 34.1406251,59.2827832 C34.1406251,56.5889761 32.1599268,54.2859149 29.4485296,53.8303447 C26.7380518,53.3747745 24.0863975,54.8990443 23.1700371,57.4388938 L20.9411769,57.4388938 C20.442096,57.4388938 19.9632357,57.6333666 19.6102946,57.9790958 L14.9237137,62.5708125 L9.65257432,59.9886471 L9.65257432,41.6073748 L12.3088241,39 L14.1305154,39 L15.0009196,40.7016361 C13.1479785,42.5968448 12.9126844,45.5067328 14.4375006,47.6639393 C15.9623168,49.8202453 18.8262873,50.6278474 21.2886032,49.5960615 C23.7509194,48.5633756 25.1305152,45.9758081 24.5900738,43.4062475 C24.0496328,40.8366867 21.7371326,38.9945979 19.058824,39 C18.8299638,39.0090033 18.6020226,39.0315118 18.3759195,39.0684256 L16.988052,36.3323026 C16.6681991,35.7038677 16.0110299,35.3086199 15.2941182,35.3122212 L11.5294124,35.3122212 C11.0303315,35.3122212 10.5514712,35.5066939 10.1985301,35.8524232 L7.52573601,38.4706021 L4.00000079,36.1693417 L4.00000079,23.652862 Z M24.0000004,28.4237288 C24.0000004,29.518861 23.1044926,30.4067797 22.0000004,30.4067797 C20.8955082,30.4067797 20.0000004,29.518861 20.0000004,28.4237288 C20.0000004,27.3285967 20.8955082,26.440678 22.0000004,26.440678 C23.1044926,26.440678 24.0000004,27.3285967 24.0000004,28.4237288 Z M26.666667,58.8305085 C26.666667,57.7353763 27.5621747,56.8474576 28.666667,56.8474576 C29.7711591,56.8474576 30.666667,57.7353763 30.666667,58.8305085 C30.666667,59.9256406 29.7711591,60.8135593 28.666667,60.8135593 C27.5621747,60.8135593 26.666667,59.9256406 26.666667,58.8305085 Z M19.3333338,42.3050847 C20.437826,42.3050847 21.3333338,43.1930034 21.3333338,44.2881356 C21.3333338,45.3832677 20.437826,46.2711864 19.3333338,46.2711864 C18.2288416,46.2711864 17.3333338,45.3832677 17.3333338,44.2881356 C17.3333338,43.1930034 18.2288416,42.3050847 19.3333338,42.3050847 Z" id="Shape"></path>
                <g id="brain" transform="translate(64.500000, 39.000000) scale(-1, 1) translate(-64.500000, -39.000000) translate(44.000000, 0.000000)">
                    <path d="M41,6.72422826 L38.3548409,3.66615488 C35.8813311,0.79063473 32.0907736,-0.53083159 28.4023899,0.196525709 C24.7140062,0.923883008 21.6841063,3.59035836 20.4471141,7.19759758 C19.3897367,6.88573477 18.2945287,6.72638927 17.1935684,6.72422826 C12.7840304,6.71761046 8.7332667,9.19369175 6.67059275,13.1565322 C4.60791879,17.1193727 4.87235721,21.9176369 7.35754445,25.6213466 C2.85720781,27.8869084 0.00694362647,32.5485371 3.45164042e-05,37.6546099 C-0.00845253489,41.4117914 1.54853535,44.9968346 4.2851922,47.5214016 C3.58551436,49.9570991 4.05644432,52.5856667 5.55589475,54.6140224 C7.05534518,56.642378 9.40771309,57.8329777 11.9032503,57.8265979 L12.0050889,57.8265979 C12.5844858,61.9991289 15.8310895,65.2656143 19.9405661,65.8106708 C19.876287,66.284441 19.8422695,66.7619486 19.8387275,67.2401923 C19.8322824,71.7184469 22.5584307,75.7310649 26.6799464,77.3097834 C30.8014622,78.8885019 35.4537755,77.7021533 38.3548409,74.3326633 L41,69.9297907 C41,70.6725028 41,5.98151617 41,6.72422826 Z M22.4838866,67.2401923 C22.4886182,66.7435937 22.537756,66.2484616 22.6306929,65.7609132 C27.1119447,65.0256095 30.4092979,61.0972732 30.4193637,56.4817987 C30.4193637,55.7390866 31.0115028,55.1369995 31.7419433,55.1369995 C32.4723838,55.1369995 33.0645228,55.7390866 33.0645228,56.4817987 L33.0645228,57.8265979 L35.7096819,57.8265979 L35.7096819,56.4817987 C35.7096819,54.2536624 33.9332648,52.4474011 31.7419433,52.4474011 C29.5506218,52.4474011 27.7742047,54.2536624 27.7742047,56.4817987 C27.737585,58.8840511 26.4433359,61.0839593 24.3789884,62.2528392 C22.3146408,63.421719 19.7938185,63.3819898 17.7660906,62.1486172 C15.7383628,60.9152446 14.5117896,58.6756073 14.5484094,56.2733548 C14.7783536,52.5630907 17.8376326,49.6929282 21.4932745,49.7578027 L23.8064661,49.7578027 C27.4568559,49.7533566 30.4149911,46.745524 30.4193637,43.0338067 L30.4193637,41.6890075 L27.7742047,41.6890075 L27.7742047,43.0338067 C27.7742047,45.261943 25.9977876,47.0682043 23.8064661,47.0682043 L21.4932745,47.0682043 C16.8194794,47.0351443 12.8076535,50.4436954 12.0090567,55.1262411 C11.9707019,55.1262411 11.9416051,55.1369995 11.9032503,55.1369995 C8.98148828,55.1369995 6.61293218,52.7286511 6.61293218,49.7578027 C6.61293218,46.7869543 8.98148828,44.3786059 11.9032503,44.3786059 L11.9032503,41.6890075 C9.37746982,41.6915489 7.00420926,42.918345 5.51386858,44.9918343 C3.66613212,43.0116347 2.6388908,40.3842545 2.64507981,37.6546099 C2.64548039,33.3729685 5.14270588,29.499069 9.00383672,27.7905649 C12.8649676,26.0820608 17.3549226,26.8642168 20.4365334,29.7821554 L22.2392093,27.8147141 C18.9432836,24.6717165 14.2883453,23.4750927 9.919381,24.647712 C7.41214215,21.4191742 7.25926223,16.9084843 9.54196396,13.5121014 C11.8246657,10.1157184 16.013244,8.62177924 19.8823726,9.82399042 C19.855921,10.1332942 19.8360823,10.4425981 19.8360823,10.7653499 C19.8426422,16.7042816 24.5759139,21.5170734 30.4167186,21.5237435 L31.7392981,21.5237435 C32.4697386,21.5237435 33.0618777,22.1258306 33.0618777,22.8685427 L33.0618777,26.9029403 L35.7070367,26.9029403 L35.7070367,22.8618187 C35.7070367,20.6336824 33.9306196,18.8274211 31.7392981,18.8274211 L30.4193637,18.8274211 C26.0367207,18.8274211 22.4838866,15.2148984 22.4838866,10.7586259 C22.4838866,6.30235333 26.0367207,2.68983066 30.4193637,2.68983066 C34.8020068,2.68983066 38.3548409,6.30235333 38.3548409,10.7586259 L38.3548409,20.1722203 C38.3548409,20.9149324 38.3548409,54.3942874 38.3548409,55.1369995 L38.3548409,67.2401923 C38.3504667,71.6946212 34.8001936,75.3045398 30.4193637,75.3089875 C26.0385339,75.3045398 22.4882608,71.6946212 22.4838866,67.2401923 Z" id="Shape" stroke="#7B62D5"></path>
                    <polygon id="Path" points="38.3548387 23.7966102 41 23.7966102 41 50.2372881 38.3548387 50.2372881"></polygon>
                    <polygon id="Path" points="27.7741935 37.0169492 30.4193548 37.0169492 30.4193548 39.6610169 27.7741935 39.6610169"></polygon>
                    <polygon id="Path" points="31.7419355 30.4067797 34.3870968 30.4067797 34.3870968 33.0508475 31.7419355 33.0508475"></polygon>
                    <path d="M14.5483871,33.0508475 C11.6266226,33.0508475 9.25806452,35.7143738 9.25806452,39 L11.9032258,39 C11.9032258,37.3571869 13.0875049,36.0254237 14.5483871,36.0254237 C16.0092693,36.0254237 17.1935484,37.3571869 17.1935484,39 C17.1935484,40.6428131 16.0092693,41.9745763 14.5483871,41.9745763 L14.5483871,44.9491525 C17.4701516,44.9491525 19.8387097,42.2856262 19.8387097,39 C19.8387097,35.7143738 17.4701516,33.0508475 14.5483871,33.0508475 Z" id="Path"></path>
                    <path d="M10.5806452,18.5084746 L13.2258065,18.5084746 C13.2258065,16.3180571 15.002225,14.5423729 17.1935484,14.5423729 L17.1935484,11.8983051 C13.5431555,11.9026759 10.5850178,14.8595907 10.5806452,18.5084746 L10.5806452,18.5084746 Z" id="Path"></path>
                    <path d="M29.0967742,6.61016949 L29.0967742,9.25423729 C30.5576564,9.25423729 31.7419355,10.4380268 31.7419355,11.8983051 L34.3870968,11.8983051 C34.3870968,8.97774844 32.0185387,6.61016949 29.0967742,6.61016949 Z" id="Path"></path>
                    <path d="M31.7419355,67.4237288 C31.7419355,68.153868 31.149796,68.7457627 30.4193548,68.7457627 L29.0967742,68.7457627 L29.0967742,71.3898305 L30.4193548,71.3898305 C32.6106782,71.3898305 34.3870968,69.6141463 34.3870968,67.4237288 L34.3870968,66.1016949 L31.7419355,66.1016949 L31.7419355,67.4237288 Z" id="Path"></path>
                </g>
            </g>
        </g>
    </g>
</svg>