<?xml version="1.0" encoding="UTF-8"?>
<svg width="86px" height="86px" viewBox="0 0 86 86" version="1.1" xmlns="http://www.w3.org/2000/svg" xmlns:xlink="http://www.w3.org/1999/xlink">
    <!-- Generator: Sketch 58 (84663) - https://sketch.com -->
    <title>Group 2</title>
    <desc>Created with Sketch.</desc>
    <g id="Welcome" stroke="none" stroke-width="1" fill="none" fill-rule="evenodd">
        <g id="Desktop" transform="translate(-173.000000, -644.000000)" fill="#7B62D5">
            <g id="Group-2" transform="translate(173.000000, 644.028301)">
                <path d="M62.5868774,85.9453279 L59.010585,85.9453279 L59.010585,75.19516 C59.010585,75.146785 58.8317117,72.8427576 54.8691737,71.51866 C51.7347838,70.4955623 48.6701328,69.2698944 45.6939963,67.8493826 C45.0847877,67.5443514 44.701392,66.9191717 44.7050801,66.2368826 L44.7050801,63.8181326 C44.7052478,63.058074 45.1840314,62.380992 45.8995246,62.128535 C49.4665967,60.8637303 51.8528033,57.4862147 51.8576649,53.69516 L51.8576649,48.32016 C51.8576649,43.3726404 47.8547254,39.3618826 42.9168501,39.3618826 C37.9789749,39.3618826 33.9760353,43.3726404 33.9760353,48.32016 L33.9760353,53.69516 C33.9810645,57.4862147 36.3672712,60.8637303 39.9341757,62.128535 C40.6496688,62.380824 41.1284525,63.058074 41.1286201,63.8181326 L41.1286201,66.2368826 C41.1323082,66.9191717 40.7489125,67.5443514 40.1397039,67.8493826 C37.1639028,69.2729178 34.099084,70.5016092 30.9645265,71.5277303 C27.0019885,72.8427576 26.8231152,75.1469529 26.8231152,75.2437029 L26.8231152,85.9453279 L23.2468228,85.9453279 L23.2468228,75.1953279 C23.2468228,74.9964529 23.3219261,70.2968553 29.8344564,68.1218279 C32.4577078,67.2493983 35.0338521,66.24041 37.5521601,65.0992303 L37.5521601,65.0167576 C33.1871152,62.9421756 30.4032634,58.5358514 30.3994076,53.69516 L30.3994076,48.32016 C30.4049398,43.8432889 32.7896376,39.7084022 36.6579612,37.468035 C40.5447254,35.2568944 45.3065772,35.2609256 49.1894856,37.478785 C53.0506006,39.7191522 55.4295987,43.8495037 55.4337897,48.32016 L55.4337897,53.69516 C55.4299339,58.5358514 52.6460821,62.9421756 48.2810373,65.0167576 L48.2810373,65.0992303 C50.7995129,66.24041 53.3754895,67.2492303 55.998741,68.1218279 C62.5112712,70.2968553 62.5863745,74.9964529 62.5863745,75.1953279 L62.5863745,85.9453279 L62.5868774,85.9453279 Z" id="Path" fill-rule="nonzero"></path>
                <path d="M8.94165324,85.94516 L5.3651932,85.94516 L5.3651932,75.19516 C5.3651932,74.996285 5.44029651,70.2966873 11.9528267,68.12166 C14.5760782,67.2492303 17.1522224,66.240242 19.6705304,65.0990623 L19.6705304,65.0165897 C15.3054856,62.9420076 12.5216337,58.5356834 12.517778,53.694992 L12.517778,48.319992 C12.5223043,41.3934647 18.1302419,35.7819647 25.0432673,35.7864971 C27.1293959,35.7878436 29.1819963,36.3115701 31.0146513,37.3101444 L29.285431,40.445617 C24.9411737,38.0935506 19.5164681,39.7154569 17.1689866,44.0680311 C16.4645577,45.3741561 16.0952439,46.8353162 16.0940704,48.319992 L16.0940704,53.694992 C16.0990996,57.4860467 18.4853063,60.8637303 22.0522107,62.128367 C22.7677039,62.3806561 23.2464875,63.0579061 23.2466552,63.8179647 L23.2466552,66.2367147 C23.2503433,66.9190037 22.8669476,67.5441834 22.257739,67.8492147 C19.2819378,69.2727498 16.2171191,70.5014412 13.0825616,71.5275623 C9.12002361,72.8425897 8.94115031,75.146785 8.94115031,75.243535 L8.94165324,85.94516 Z" id="Path" fill-rule="nonzero"></path>
                <path d="M80.468507,85.94516 L76.8922146,85.94516 L76.8922146,75.19516 C76.8922146,75.146785 76.7133413,72.8427576 72.7508033,71.51866 C69.6164135,70.4955623 66.5517624,69.2698944 63.5756259,67.8493826 C62.9664174,67.5443514 62.5830217,66.9191717 62.5867098,66.2368826 L62.5867098,63.8181326 C62.5868774,63.058074 63.065661,62.380992 63.7811542,62.128535 C67.3482263,60.8637303 69.734433,57.4862147 69.7392946,53.69516 L69.7392946,48.6068826 C69.7721523,45.3148631 68.0687488,42.2497694 65.2580743,40.5443826 C64.5246435,40.0942264 63.7214739,39.7697108 62.8815909,39.5841053 C60.735279,39.0828865 58.4801679,39.3889256 56.5442458,40.4441053 L54.8222341,37.3051053 C57.5209242,35.8399139 60.6584992,35.4063865 63.652238,36.0849803 C64.8686435,36.3522186 66.0320743,36.8208514 67.0944174,37.4717303 C70.9835285,39.8239647 73.3476065,44.0554334 73.3154193,48.6068826 L73.3154193,53.69516 C73.3115636,58.5358514 70.5277117,62.9421756 66.1626669,65.0167576 L66.1626669,65.0992303 C68.6811425,66.24041 71.2571191,67.2492303 73.8803706,68.1218279 C80.3929008,70.2968553 80.4680041,74.9964529 80.4680041,75.1953279 L80.468507,85.94516 Z" id="Path" fill-rule="nonzero"></path>
                <path d="M50.0696026,33.9868826 L46.4933102,33.9868826 L46.4933102,21.44516 C46.4933102,20.4556561 47.2939651,19.6534373 48.2815402,19.6534373 L52.1780275,19.6534373 L42.9170178,5.07458967 L33.656008,19.6534373 L37.5524953,19.6534373 C38.5400704,19.6534373 39.3407254,20.4556561 39.3407254,21.44516 L39.3407254,33.9868826 L35.764433,33.9868826 L35.764433,23.2368826 L30.3999105,23.2368826 C29.4123355,23.2372186 28.6113452,22.4355037 28.6110097,21.4459998 C28.6110097,21.1048553 28.7079066,20.7709334 28.8906357,20.4832029 L41.4077429,0.774757636 C42.0078989,-0.060382989 43.1699885,-0.250019708 44.0035012,0.351308417 C44.1662809,0.468718573 44.3089437,0.61165998 44.426125,0.774757636 L56.9433998,20.483035 C57.4736493,21.3178397 57.2282224,22.4252576 56.3952127,22.9565428 C56.1080431,23.1396287 55.7746045,23.2368826 55.4342926,23.2367147 L50.0697702,23.2367147 L50.0697702,33.9868826 L50.0696026,33.9868826 Z" id="Path" fill-rule="nonzero"></path>
                <path d="M3.57713082,50.1118826 L3.57713082,44.7368826 C3.57729846,44.261699 3.76572731,43.8061678 4.10100996,43.4702303 C6.23022244,41.6415545 7.37353628,38.913574 7.18561035,36.1100076 C7.16515811,36.00066 7.15426143,35.8898006 7.15342322,35.7786053 L7.15342322,30.4036053 L1.7889008,30.4036053 C0.801325753,30.4039412 0.000335499436,29.6020584 -7.28306304e-14,28.6125545 C-7.28306304e-14,28.27141 0.0968969029,27.9374881 0.279625948,27.6497576 L12.7969008,7.94131232 C13.3970567,7.1061717 14.5591464,6.91653498 15.3926591,7.5178631 C15.5554388,7.63527326 15.6981016,7.77821467 15.8152829,7.94131232 L28.3325577,27.6495897 C28.8628072,28.4843944 28.6173803,29.5918123 27.7843706,30.1230975 C27.497201,30.3061834 27.1637624,30.4034373 26.8234505,30.4032694 L21.4589281,30.4032694 L21.4589281,33.9865467 L17.8826357,33.9865467 L17.8826357,28.6115467 C17.8826357,27.6220428 18.6832907,26.819824 19.6708657,26.819824 L23.567353,26.819824 L14.3061757,12.2413123 L5.04516591,26.82016 L8.94165324,26.82016 C9.92922829,26.82016 10.7298833,27.6223787 10.7298833,28.6118826 L10.7298833,35.6423826 C11.0406903,39.2812576 9.73174681,42.8719256 7.15359086,45.4536053 L7.15359086,50.1118826 L3.57713082,50.1118826 Z" id="Path" fill-rule="nonzero"></path>
                <path d="M82.2567371,50.1118826 L78.6804447,50.1118826 L78.6804447,45.4536053 C76.1016182,42.8715897 74.7928423,39.2800819 75.1041523,35.6407029 L75.1041523,28.6120506 C75.1041523,27.6225467 75.9048072,26.8203279 76.8923823,26.8203279 L80.7888696,26.8203279 L71.5278599,12.2414803 L62.2668501,26.8203279 L66.1633374,26.8203279 C67.1509125,26.8203279 67.9515675,27.6225467 67.9515675,28.6120506 L67.9515675,33.9870506 L64.3752751,33.9870506 L64.3752751,30.4037733 L59.0107527,30.4037733 C58.0231776,30.4041092 57.2221874,29.6023944 57.2218519,28.6128904 C57.2218519,28.2717459 57.3187488,27.937824 57.5014778,27.6500936 L70.0187527,7.94181623 C70.6189086,7.1066756 71.7809983,6.91703889 72.6145109,7.51836701 C72.7772907,7.63577717 72.9199534,7.77871857 73.0371347,7.94181623 L85.5544096,27.6500936 C86.0848267,28.4848983 85.8392322,29.5923162 85.0062224,30.1236014 C84.7190528,30.3066873 84.3856143,30.4039412 84.0453024,30.4037733 L78.6807799,30.4037733 L78.6807799,35.7787733 C78.6809476,35.8990389 78.6688774,36.0191365 78.6450723,36.1370506 C78.4641874,38.9360819 79.6081718,41.6571756 81.7331932,43.4828279 C82.0654583,43.815742 82.2537195,44.2662342 82.2570723,44.7370506 L82.2567371,50.1118826 Z" id="Path" fill-rule="nonzero"></path>
                <circle id="Oval" cx="5.50000022" cy="55.471699" r="1.5"></circle>
            </g>
        </g>
    </g>
</svg>