<?xml version="1.0" encoding="UTF-8"?>
<svg width="99px" height="91px" viewBox="0 0 99 91" version="1.1" xmlns="http://www.w3.org/2000/svg" xmlns:xlink="http://www.w3.org/1999/xlink">
    <!-- Generator: Sketch 58 (84663) - https://sketch.com -->
    <title>team</title>
    <desc>Created with Sketch.</desc>
    <g id="Welcome" stroke="none" stroke-width="1" fill="none" fill-rule="evenodd">
        <g id="Desktop" transform="translate(-456.000000, -640.000000)" fill="#7B62D5" fill-rule="nonzero">
            <g id="team" transform="translate(456.000000, 640.000000)">
                <path d="M41.416,0.586 C41.042,0.214 40.528,0 40,0 C39.474,0 38.958,0.214 38.586,0.586 C38.214,0.958 38,1.474 38,2 C38,2.526 38.214,3.042 38.586,3.414 C38.958,3.786 39.474,4 40,4 C40.528,4 41.042,3.786 41.416,3.414 C41.788,3.042 42,2.526 42,2 C42,1.474 41.788,0.958 41.416,0.586 Z" id="Path"></path>
                <path d="M67.9031751,32.0270218 L66.3096711,23.9372272 C65.65996,20.6376123 64.0589548,17.63819 61.6799504,15.2634146 L58.9553182,12.5431964 L58.9553182,1.92554557 C58.9553182,0.862066752 58.0942297,0 57.0319578,0 C55.9696859,0 55.1085975,0.862066752 55.1085975,1.92554557 L55.1085975,13.3422978 C55.1085975,13.8539153 55.312089,14.3445443 55.6738731,14.7057766 L58.9637809,17.9901797 C60.7990514,19.8225289 62.0342334,22.136457 62.5356534,24.6820282 L64.1291575,32.7718228 C64.191282,33.0876123 64.1255031,33.4078306 63.9437455,33.6733633 C63.761988,33.938896 63.4873321,34.1160462 63.170747,34.171887 C62.5581567,34.281258 61.9603764,33.8905648 61.8118929,33.2845956 L60.9885024,29.9225931 C60.6982673,28.7379974 59.61003,27.9837612 58.4004287,28.1306804 C57.1910197,28.2770218 56.3131981,29.2684852 56.3131981,30.4881258 L56.3131981,46.150706 C56.3131981,46.7688062 55.8108163,47.2717587 55.1934177,47.2717587 C54.625834,47.2717587 54.1567264,46.8465982 54.0844081,46.2980103 L54.0844081,38.1192555 C54.0844081,37.0557766 53.2233197,36.1937099 52.1610478,36.1937099 C52.1591244,36.1937099 52.1573934,36.1939024 52.1556623,36.1939024 C52.1539313,36.1939024 52.152008,36.1937099 52.1502769,36.1937099 C51.088005,36.1937099 50.2269166,37.0557766 50.2269166,38.1192555 L50.2269166,46.150706 C50.2269166,46.2556483 50.2313403,46.3596277 50.2376874,46.462837 L50.2376874,49.0280488 C50.2376874,49.6461489 49.7353057,50.1491014 49.117907,50.1491014 C48.5005084,50.1491014 47.9981266,49.6461489 47.9981266,49.0280488 L47.9981266,46.4616816 C48.0044737,46.358665 48.0088975,46.2552632 48.0088975,46.150706 L48.0088975,38.1192555 C48.0088975,37.0557766 47.147809,36.1937099 46.0855371,36.1937099 C46.0838061,36.1937099 46.0818827,36.1939024 46.0801517,36.1939024 C46.0784207,36.1939024 46.0764973,36.1937099 46.0747663,36.1937099 C45.0124944,36.1937099 44.151406,37.0557766 44.151406,38.1192555 L44.151406,46.2974326 C44.0792799,46.8464056 43.60998,47.2719512 43.042204,47.2719512 C42.4248054,47.2719512 41.9224237,46.7689987 41.9224237,46.1508986 L41.9224237,43.2783697 C41.9287707,43.175353 41.9331945,43.0719512 41.9331945,42.9673941 L41.9331945,38.1192555 C41.9331945,37.0557766 41.0721061,36.1937099 40.0098341,36.1937099 C40.0081031,36.1937099 40.0061798,36.1939024 40.0044487,36.1939024 C40.0027177,36.1939024 40.0007943,36.1937099 39.9990633,36.1937099 C38.9367914,36.1937099 38.075703,37.0557766 38.075703,38.1192555 L38.075703,43.1139281 C38.003577,43.6629012 37.534277,44.0884467 36.9665011,44.0884467 C36.3491024,44.0884467 35.8467207,43.5854942 35.8467207,42.9673941 L35.8467207,36.2220154 L35.8467207,31.6521181 L35.8467207,26.036457 C35.8467207,22.5562259 37.202305,19.2860719 39.6640139,16.8286906 L41.7904811,14.7059692 C42.1522652,14.3447368 42.3557567,13.8541078 42.3557567,13.3424904 L42.3557567,8.79223363 C42.3557567,7.72875481 41.4946683,6.86668806 40.4323964,6.86668806 C39.3701245,6.86668806 38.5090361,7.72875481 38.5090361,8.79223363 L38.5090361,12.5431964 L36.9478445,14.1015404 C33.757182,17.2867779 32,21.5252888 32,26.0362644 L32,31.6519255 L32,36.2218228 L32,42.9672015 C32,45.7087933 34.2280206,47.9393453 36.9665011,47.9393453 C37.4425328,47.9393453 37.9026005,47.8706033 38.3388187,47.7446727 C39.004109,49.706611 40.8603441,51.1226573 43.0420117,51.1226573 C43.5555489,51.1226573 44.0510065,51.0442875 44.5172291,50.8987163 C45.2571458,52.7156611 47.0399085,54 49.1175224,54 C51.1951362,54 52.9784759,52.7158537 53.7183926,50.8989089 C54.1846152,51.0444801 54.6800728,51.1228498 55.19361,51.1228498 C57.9320905,51.1228498 60.1601111,48.8922978 60.1601111,46.150706 L60.1601111,37.1809371 C61.2066114,37.8849166 62.5137271,38.1982028 63.8389224,37.9646341 C65.1818126,37.7275995 66.3460226,36.9766367 67.1169054,35.8503851 C67.8877883,34.7241335 68.1668678,33.3664313 67.9031751,32.0270218 Z" id="Path"></path>
                <path d="M48.3296861,71.2066844 C48.09199,70.7961495 47.8015156,70.4281771 47.4689351,70.1074105 C48.844662,68.5418834 49.1436741,66.2142937 48.0434806,64.3142638 C47.7850224,63.8679377 47.4673828,63.4763625 47.1060847,63.1437944 C47.5122055,62.6235642 47.8141281,62.0230457 47.9903143,61.3671959 C48.3366715,60.0781318 48.158933,58.7319952 47.4896971,57.5762291 C46.4418938,55.7667414 44.4223499,54.8589988 42.4639279,55.1267558 C42.3537145,54.6423169 42.1701549,54.1718075 41.9138312,53.7293507 C41.2447893,52.5737781 40.1641936,51.7470978 38.8715148,51.401761 C37.5786419,51.0562306 36.2285279,51.2334455 35.069347,51.9009033 L27.24148,56.4069205 C27.3278268,55.1416527 26.942468,53.8458172 26.0696867,52.8088394 C25.185263,51.7579319 23.94284,51.1210418 22.5711878,51.0152158 C21.2003118,50.9105507 19.8736764,51.3483643 18.8377093,52.2510768 L12.5815474,57.7033363 C10.0297582,59.9272283 8.21977497,62.8284448 7.34718765,66.0937643 L6.34789374,69.8338495 L0.970528288,72.9293059 C0.0424461979,73.4634656 -0.275581514,74.6467038 0.260350481,75.5720518 C0.619708213,76.1926908 1.27186876,76.5397689 1.94246289,76.5395754 C2.27155075,76.5395754 2.60529551,76.4559981 2.91090481,76.2801374 L8.98583562,72.7830456 C9.43231626,72.5259292 9.75791144,72.1024321 9.89063319,71.6058048 L11.0973534,67.0897274 C11.77047,64.5706063 13.166959,62.3322044 15.135665,60.6165477 L21.3918269,55.1642882 C21.6361204,54.9512821 21.9481329,54.8479713 22.2721758,54.8729284 C22.5956365,54.8978855 22.8884394,55.0480151 23.0970298,55.2958451 C23.5012103,55.7758343 23.4620147,56.4916586 23.0081606,56.925216 L20.4895519,59.3315464 C19.6020236,60.1793145 19.4933626,61.505911 20.2310937,62.4862034 C20.9690189,63.4664957 22.2770267,63.7332854 23.3413232,63.1201915 L37.0099176,55.2519283 C37.2710922,55.1014117 37.5755373,55.0615577 37.8671759,55.1393311 C38.1586205,55.2171044 38.4023318,55.4036057 38.5532931,55.6642044 C38.7040603,55.9248031 38.7442261,56.2283513 38.666223,56.5189373 C38.5979217,56.7733451 38.4423035,56.9871251 38.2300263,57.1384155 L31.1251437,61.2282873 C30.1970616,61.762447 29.8790339,62.9456852 30.4149658,63.8710332 C30.415936,63.8725809 30.4169062,63.8739352 30.4178764,63.8754829 C30.4188466,63.8770306 30.4194287,63.8787718 30.4203989,63.8803195 C30.9561369,64.8056675 32.1426771,65.1225649 33.0709532,64.5884052 L40.0801753,60.5536712 C40.171373,60.501242 40.2598542,60.4451368 40.3469771,60.3876774 L42.5857835,59.0990002 C43.1252082,58.7884872 43.8175346,58.9732473 44.129159,59.5112763 C44.4405895,60.0491119 44.2550895,60.7393986 43.7156648,61.0501051 L41.4758882,62.3393627 C41.3829441,62.385601 41.2903882,62.4337741 41.1991905,62.4862034 L34.1899684,66.5209373 C33.2618863,67.055097 32.9438586,68.2383352 33.4797906,69.1636832 C33.5525547,69.2888557 33.6414239,69.4066765 33.7399951,69.5128894 C34.1121593,69.9170399 34.6325683,70.1406866 35.167336,70.1406866 C35.4964239,70.1406866 35.8301686,70.0571093 36.1357779,69.8812487 L43.2726768,65.7728042 C43.7880408,65.5597981 44.3961548,65.7546184 44.6827484,66.249311 C44.9941789,66.7871466 44.8086789,67.4774333 44.2692542,67.7881398 L41.763452,69.2306224 C41.6699258,69.2770543 41.5769818,69.3256143 41.4855901,69.3780436 L37.254599,71.8135873 C36.326517,72.347747 36.0084892,73.5309852 36.5444212,74.4563332 C36.8898083,75.0500805 37.5423569,75.4333367 38.2319667,75.4333367 C38.5610546,75.4333367 38.8947993,75.3497593 39.2004086,75.1738987 L43.5598526,72.6644509 C43.7884289,72.5696526 44.0400957,72.5514668 44.2832249,72.6164713 C44.5746695,72.6944381 44.8181867,72.8807459 44.969148,73.1413447 C45.2805785,73.6791802 45.0950785,74.369467 44.5556538,74.6801734 L38.3369411,78.2598753 L29.7800747,83.1857137 C26.7428033,84.9340662 23.2051088,85.3956761 19.8189577,84.4859989 L16.8938401,83.6999464 C16.3957455,83.5660679 15.8652465,83.6355222 15.4187659,83.8926386 L9.34383509,87.3897304 C8.415753,87.9238901 8.09772529,89.1071283 8.63365728,90.0324763 C8.99301502,90.6531153 9.64517556,91 10.3157697,91 C10.6448575,91 10.9786023,90.9164226 11.2842116,90.740562 L16.6615771,87.6451056 L18.8089918,88.2222147 C23.1979294,89.4011967 27.7834272,88.8028063 31.7202571,86.5367387 L36.620678,83.7158106 C36.620678,83.7158106 36.6208721,83.7158106 36.6208721,83.7156172 L40.2771236,81.6109003 L40.609122,81.4197559 L46.4958363,78.031005 C48.8885146,76.6537203 49.7110402,73.592314 48.3296861,71.2066844 Z" id="Path"></path>
                <path d="M98.0313202,72.8417871 L92.6651679,69.7312391 L92.0937568,67.5779622 C90.925956,63.1769257 88.1192452,59.4990915 84.1908182,57.2217816 L75.6517951,52.2719277 L69.44605,48.6747734 C68.2892863,48.0042559 66.941794,47.826177 65.6520044,48.1731975 C64.3620211,48.520218 63.2836788,49.3509288 62.6160321,50.5121352 C62.3767016,50.928171 62.2053364,51.3650086 62.0953528,51.8094281 C61.3508338,51.6593442 60.5763017,51.681118 59.8213265,51.8844701 C58.5313432,52.2314906 57.4530009,53.0622013 56.7853542,54.2234078 C56.5297586,54.6680217 56.3465817,55.140825 56.2365982,55.6274313 C54.28226,55.3585634 52.2669273,56.270926 51.221309,58.0890412 C50.1756906,59.9073509 50.3964322,62.11584 51.6056705,63.68064 C51.2408659,64.0196898 50.9244695,64.4153126 50.6688739,64.8599265 C49.2904004,67.257187 50.1114044,70.3335189 52.4988997,71.7175184 L60.3104435,76.2456986 C59.1709131,76.8065693 58.2395382,77.7922242 57.7761744,79.0702706 C57.3066143,80.3656194 57.3743859,81.7636163 57.9670966,83.0070578 C58.5600009,84.2504994 59.6019403,85.1803588 60.9012179,85.625556 L68.7483902,88.3146247 C71.9493379,89.4116761 75.3673482,89.5242391 78.6327757,88.6408434 L82.373185,87.6287489 L87.7393372,90.7392969 C88.0443092,90.9160149 88.3771644,91 88.7057597,91 C89.3749554,91 90.0257561,90.6514239 90.3843644,90.027759 C90.9191789,89.0978996 90.6018143,87.9088926 89.6756675,87.3721287 L83.6134045,83.8579871 C83.1678549,83.5996172 82.6382686,83.5298243 82.1414062,83.6645499 L77.6251094,84.886412 C75.1059436,85.5682053 72.4688553,85.4811099 69.9992596,84.6348465 L62.1518937,81.9457777 C61.8455662,81.8407967 61.5998459,81.6215031 61.4600429,81.328334 C61.3202398,81.0351648 61.3043619,80.7054467 61.41512,80.4000298 C61.6294718,79.8082481 62.2696226,79.4830014 62.8718213,79.6585529 L66.2141211,80.6350706 C67.3919908,80.9795638 68.596001,80.4070285 69.0775664,79.2742059 C69.5589381,78.1415776 69.1375926,76.8726684 68.0753218,76.2569743 L54.43523,68.3503502 C53.8969302,68.0383233 53.711817,67.3446711 54.0225981,66.804019 C54.1732446,66.5421498 54.416254,66.3549337 54.7070908,66.2765867 C54.9499066,66.2112652 55.2008551,66.2295397 55.4287611,66.3246058 L62.5517459,70.4534694 C62.8567179,70.6301874 63.1895731,70.7143666 63.5181684,70.7141722 C64.0512401,70.7141722 64.5701766,70.489824 64.9415648,70.0844807 C65.0405113,69.9775556 65.1293888,69.8587715 65.2023885,69.7324055 C65.7372029,68.8025461 65.4198384,67.6135391 64.4936916,67.0767752 L57.4992792,63.0223703 C57.4078844,62.969491 57.3149405,62.9206943 57.2214158,62.8738417 L54.9878587,61.5792705 C54.4495589,61.2672436 54.2644457,60.5735914 54.5752267,60.0329393 C54.7258732,59.7710701 54.9688827,59.583854 55.2599131,59.505507 C55.5509436,59.4273545 55.8545602,59.4675972 56.1151902,59.6186532 L58.3491345,60.9136132 C58.4360758,60.9715472 58.5245661,61.0277314 58.6155736,61.0806108 L65.609986,65.1350156 C65.914958,65.3117336 66.2478132,65.3959128 66.5764085,65.3957184 C67.1096739,65.3957184 67.6286104,65.1711758 68,64.7656381 C68.098945,64.6589074 68.1874353,64.5401233 68.2606286,64.4139517 C68.795443,63.4840923 68.4780785,62.2950853 67.5519317,61.7583214 L60.4616709,57.6483155 C60.25003,57.4962874 60.09493,57.2814652 60.0265775,57.0258171 C59.948737,56.7338144 59.9886254,56.4287863 60.1392719,56.166917 C60.2899184,55.9050477 60.5329279,55.7176372 60.8239583,55.6394847 C61.1146015,55.5613322 61.4186054,55.6013805 61.6794291,55.7526309 L64.1809742,57.2027295 C64.2673346,57.2602746 64.3554376,57.3162645 64.4464451,57.3691438 L68.6686134,59.8165618 C68.9735854,59.9932798 69.3064406,60.077459 69.6350359,60.0772646 C70.1681076,60.0772646 70.6872378,59.8527219 71.0584323,59.4473787 C71.1573788,59.3402592 71.2456754,59.2216695 71.3190624,59.0954979 C71.8538768,58.1656385 71.5365123,56.9766315 70.6103655,56.4398676 L66.260593,53.9183796 C65.8189161,53.5781635 65.6845347,52.9525545 65.9701435,52.4556445 C66.12079,52.1937752 66.3637994,52.0063647 66.6546362,51.9282122 C66.9458603,51.8502541 67.2492833,51.890108 67.510107,52.0413583 L73.3845459,55.4466307 L73.715852,55.6387071 L77.3644793,57.7536853 C77.3644793,57.7536853 77.3646729,57.7536853 77.3646729,57.7538797 L82.2548752,60.588561 C85.285813,62.3456317 87.4510176,65.1830347 88.3519921,68.5783922 L89.1303969,71.5112502 C89.2628419,72.0102987 89.5877581,72.436055 90.0333077,72.6942304 L96.0955707,76.208372 C96.4005428,76.38509 96.7333979,76.4690748 97.0619932,76.4690748 C97.731189,76.4690748 98.3819896,76.120499 98.740598,75.4968342 C99.2748315,74.5677524 98.957467,73.3787454 98.0313202,72.8417871 Z" id="Path"></path>
            </g>
        </g>
    </g>
</svg>